<?xml version="1.0" encoding="UTF-8" standalone="no"?>
<!-- Created with Inkscape (http://www.inkscape.org/) -->

<svg
   xmlns:dc="http://purl.org/dc/elements/1.1/"
   xmlns:cc="http://creativecommons.org/ns#"
   xmlns:rdf="http://www.w3.org/1999/02/22-rdf-syntax-ns#"
   xmlns:svg="http://www.w3.org/2000/svg"
   xmlns="http://www.w3.org/2000/svg"
   xmlns:xlink="http://www.w3.org/1999/xlink"
   xmlns:sodipodi="http://sodipodi.sourceforge.net/DTD/sodipodi-0.dtd"
   xmlns:inkscape="http://www.inkscape.org/namespaces/inkscape"
   width="375mm"
   height="140mm"
   viewBox="0 0 1328.7401 496.063"
   id="svg2"
   version="1.1"
   inkscape:version="0.91 r13725"
   sodipodi:docname="xenphonia.svg">
  <defs
     id="defs4">
    <filter
       height="3"
       width="3"
       y="-1"
       x="-1"
       id="editing-hole">
      <feFlood
         id="feFlood4152"
         result="black"
         flood-color="#000" />
      <feMorphology
         id="feMorphology4154"
         result="erode"
         in="SourceGraphic"
         radius="2"
         operator="dilate" />
      <feGaussianBlur
         id="feGaussianBlur4156"
         result="blur"
         stdDeviation="4"
         in="erode" />
      <feOffset
         id="feOffset4158"
         result="offset"
         dy="2"
         dx="2"
         in="blur" />
      <feComposite
         id="feComposite4160"
         result="merge"
         in2="black"
         in="offset"
         operator="atop" />
      <feComposite
         id="feComposite4162"
         result="inner-shadow"
         in2="SourceGraphic"
         in="merge"
         operator="in" />
    </filter>
    <filter
       height="300%"
       width="300%"
       y="-100%"
       x="-100%"
       id="editing-hole-2">
      <feFlood
         id="feFlood4156"
         result="black"
         flood-color="#000" />
      <feMorphology
         id="feMorphology4158"
         result="erode"
         in="SourceGraphic"
         radius="2"
         operator="dilate" />
      <feGaussianBlur
         id="feGaussianBlur4160"
         result="blur"
         stdDeviation="4"
         in="erode" />
      <feOffset
         id="feOffset4162"
         result="offset"
         dy="2"
         dx="2"
         in="blur" />
      <feComposite
         id="feComposite4164"
         result="merge"
         in2="black"
         in="offset"
         operator="atop" />
      <feComposite
         id="feComposite4166"
         result="inner-shadow"
         in2="SourceGraphic"
         in="merge"
         operator="in" />
    </filter>
  </defs>
  <sodipodi:namedview
     id="base"
     pagecolor="#ffffff"
     bordercolor="#666666"
     borderopacity="1.0"
     inkscape:pageopacity="0.0"
     inkscape:pageshadow="2"
     inkscape:zoom="0.71"
     inkscape:cx="269.0377"
     inkscape:cy="520"
     inkscape:document-units="px"
     inkscape:current-layer="layer1"
     showgrid="false"
     inkscape:window-width="1855"
     inkscape:window-height="1056"
     inkscape:window-x="65"
     inkscape:window-y="24"
     inkscape:window-maximized="1" />
  <metadata
     id="metadata7">
    <rdf:RDF>
      <cc:Work
         rdf:about="">
        <dc:format>image/svg+xml</dc:format>
        <dc:type
           rdf:resource="http://purl.org/dc/dcmitype/StillImage" />
        <dc:title />
      </cc:Work>
    </rdf:RDF>
  </metadata>
  <g
     inkscape:label="Layer 1"
     inkscape:groupmode="layer"
     id="layer1"
     transform="translate(0,-556.29921)">
    <image
       sodipodi:absref="/home/dwn/tmp/galaxy-small.jpg"
       xlink:href="galaxy-small.jpg"
       y="556"
       x="0"
       id="image4144"
       preserveAspectRatio="none"
       height="500"
       width="1333.75" />
    <g
       style="filter:url(#editing-hole-2)"
       id="g4168"
       transform="translate(437.23897,732.827)">
      <g
         id="g4170"
         transform="translate(-120.9235,126.15)">
        <path
           id="path4172"
           d="m 16.5,0.33 0,0 0,0 Q 12.98,2.2 8.14,2.2 l 0,0 0,0 Q 3.3,2.2 0.66,-0.28 l 0,0 0,0 q -2.64,-2.47 -2.64,-7.26 l 0,0 0,0 q 0,-4.78 3.36,-9.46 l 0,0 0,0 q 3.35,-4.67 8.35,-7.31 l 0,0 0,0 q 5.01,-2.64 8.53,-4.18 l 0,0 -6.93,-15.95 0,0 q -1.87,-4.07 -5.39,-4.07 l 0,0 -0.88,0.11 -0.33,0 0,0 q 0.66,-3.85 5.17,-6.82 l 0,0 0,0 q 4.51,-3.08 9.68,-3.08 l 0,0 0,0 q 8.36,0 12.21,8.36 l 0,0 0.88,1.76 4.73,11.66 0,0 q 2.97,-1.32 4.23,-3.79 l 0,0 0,0 q 1.27,-2.48 1.27,-7.38 l 0,0 0,0 q 0,-4.89 -2.64,-7.97 l 0,0 0,0 q 4.18,-2.64 9.68,-2.64 l 0,0 0,0 q 9.9,0 9.9,9.57 l 0,0 0,0 q 0,10.45 -13.09,16.5 l 0,0 -6.6,3.08 5.94,15.29 0,0 q 1.76,4.62 4.95,6.6 l 0,0 0,0 q 1.32,0.88 2.86,0.99 l 0,0 0,0 q -3.3,5.39 -10.45,7.81 l 0,0 0,0 Q 41.25,2.2 38.28,2.2 l 0,0 0,0 q -2.97,0 -6.38,-2.03 l 0,0 0,0 q -3.41,-2.04 -4.62,-5.23 l 0,0 -6.05,-15.73 0,0 q -6.16,2.75 -6.16,12.76 l 0,0 0,0 q 0,4.62 1.43,8.36 z m 113.52,-18.92 0,0 0,0 q 2.75,1.87 2.75,5.99 l 0,0 0,0 q 0,4.13 -2.09,6.77 l 0,0 0,0 q -2.09,2.64 -5.5,4.4 l 0,0 0,0 Q 118.14,2.2 110.55,2.2 l 0,0 0,0 q -7.59,0 -12.05,-1.65 l 0,0 0,0 Q 94.05,-1.1 91.08,-4.18 l 0,0 0,0 q -5.83,-5.83 -5.83,-16.5 l 0,0 0,0 q 0,-16.61 9.02,-26.73 l 0,0 0,0 q 9.68,-10.89 26.51,-10.89 l 0,0 0,0 q 10.45,0 15.62,4.4 l 0,0 0,0 q 3.85,3.3 3.85,8.69 l 0,0 0,0 q 0,19.36 -33.44,19.36 l 0,0 0,0 q -0.44,2.86 -0.44,5.28 l 0,0 0,0 q 0,5.06 2.26,6.98 l 0,0 0,0 q 2.25,1.93 6.43,1.93 l 0,0 0,0 q 4.18,0 8.63,-1.93 l 0,0 0,0 q 4.46,-1.92 6.33,-5 z m -22.44,-11.99 0,0 0,0 q 7.81,0 12.32,-4.84 l 0,0 0,0 q 4.51,-4.62 4.51,-11.99 l 0,0 0,0 q 0,-2.53 -0.94,-3.9 l 0,0 0,0 q -0.93,-1.38 -2.8,-1.38 l 0,0 0,0 q -1.87,0 -3.47,0.71 l 0,0 0,0 q -1.59,0.72 -3.24,3.14 l 0,0 0,0 q -4.07,5.5 -6.38,18.26 z m 105.6,32.78 0,0 0,0 q -13.31,0 -13.31,-10.34 l 0,0 0,0 q 0.11,-2.86 0.99,-7.7 l 0,0 1.98,-10.12 0,0 q 2.97,-14.3 2.97,-17.49 l 0,0 0,0 q 0,-6.38 -3.74,-6.38 l 0,0 0,0 q -6.27,0 -9.57,16.39 l 0,0 -6.49,33.44 -22.11,2.2 11.44,-58.41 18.04,-2.09 -1.76,10.78 0,0 q 5.17,-10.78 21.01,-10.78 l 0,0 0,0 q 7.7,0 10.94,3.25 l 0,0 0,0 q 3.25,3.24 3.25,10.5 l 0,0 0,0 q 0,6.82 -3.52,22.77 l 0,0 0,0 q -1.65,7.15 -1.65,9.84 l 0,0 0,0 q 0,2.7 1.48,4.24 l 0,0 0,0 q 1.49,1.54 3.69,1.76 l 0,0 0,0 q -1.1,3.74 -4.89,5.94 l 0,0 0,0 q -3.8,2.2 -8.75,2.2 z m 96.36,-9.74 0,0 0,0 q -4.62,4.68 -10.94,7.21 l 0,0 0,0 Q 292.27,2.2 286,2.2 l 0,0 0,0 q -6.27,0 -8.47,-1.1 l 0,0 -3.41,18.7 -22.33,2.2 15.18,-78.1 17.93,-1.87 -1.43,7.59 0,0 q 4.62,-7.81 14.19,-7.81 l 0,0 0,0 q 10.78,0 16.5,6.93 l 0,0 0,0 q 5.06,6.27 5.06,15.84 l 0,0 0,0 q 0,9.57 -2.53,16.39 l 0,0 0,0 q -2.53,6.82 -7.15,11.49 z m -24.86,-30.85 -5.83,32.23 0,0 q 2.31,1.98 5.17,1.98 l 0,0 0,0 q 2.86,0 4.51,-1.1 l 0,0 0,0 q 1.65,-1.1 2.86,-3.3 l 0,0 0,0 q 3.3,-5.94 5.94,-23.98 l 0,0 0,0 q 0.77,-5.28 0.77,-10.45 l 0,0 0,0 q 0,-5.17 -1.15,-6.82 l 0,0 0,0 q -1.16,-1.65 -3.36,-1.65 l 0,0 0,0 q -6.71,0 -8.91,13.09 l 0,0 z m 119.13,26.18 0,0 0,0 q 0,4.84 4.95,6.27 l 0,0 0,0 q -1.21,4.07 -5.94,6.27 l 0,0 0,0 q -3.96,1.87 -8.3,1.87 l 0,0 0,0 q -4.35,0 -6.6,-1.16 l 0,0 0,0 q -2.26,-1.15 -3.47,-3.02 l 0,0 0,0 q -1.98,-2.86 -1.98,-8.25 l 0,0 0,0 q 0,-3.19 1.76,-11.99 l 0,0 1.54,-8.36 0,0 q 1.87,-9.57 1.87,-13.09 l 0,0 0,0 q 0,-6.16 -3.41,-6.16 l 0,0 0,0 q -4.29,0 -7.04,6.27 l 0,0 0,0 q -1.1,2.42 -1.87,6.05 l 0,0 -7.48,37.51 -22.11,2.2 15.51,-79.2 22.11,-2.2 -0.88,4.4 0,0 q -3.08,16.94 -5.72,22.66 l 0,0 0,0 q 6.16,-6.16 17.49,-6.16 l 0,0 0,0 q 11.99,0 14.19,7.92 l 0,0 0,0 q 0.77,2.53 0.77,4.73 l 0,0 0,0 q 0,2.2 -0.16,3.91 l 0,0 0,0 q -0.17,1.7 -0.72,4.78 l 0,0 -1.43,7.92 -2.53,12.43 0,0 q -0.55,2.53 -0.55,4.4 z m 60.5,14.41 0,0 0,0 q -24.2,0 -24.2,-22.77 l 0,0 0,0 q 0,-16.17 8.91,-26.62 l 0,0 0,0 q 9.46,-11.11 25.85,-11.11 l 0,0 0,0 q 11.88,0 17.93,5.5 l 0,0 0,0 q 6.05,5.5 6.05,17.05 l 0,0 0,0 q 0,17.6 -9.46,27.83 l 0,0 0,0 Q 480.15,2.2 464.31,2.2 Z m 2.86,-47.85 0,0 0,0 q -1.32,2.97 -2.36,7.42 l 0,0 0,0 q -1.05,4.46 -2.37,11.5 l 0,0 0,0 q -1.32,7.04 -1.32,15.73 l 0,0 0,0 q 0,2.86 0.94,4.73 l 0,0 0,0 q 0.93,1.87 3.46,1.87 l 0,0 0,0 q 2.53,0 4.13,-1.21 l 0,0 0,0 q 1.59,-1.21 2.8,-4.07 l 0,0 0,0 q 2.2,-5.06 3.96,-14.46 l 0,0 0,0 q 1.76,-9.41 1.93,-13.48 l 0,0 0,0 q 0.16,-4.07 0.16,-7.1 l 0,0 0,0 q 0,-3.02 -0.88,-5 l 0,0 0,0 q -0.88,-1.98 -3.35,-1.98 l 0,0 0,0 q -2.48,0 -4.13,1.54 l 0,0 0,0 q -1.65,1.54 -2.97,4.51 z m 107.36,47.85 0,0 0,0 q -13.31,0 -13.31,-10.34 l 0,0 0,0 q 0.11,-2.86 0.99,-7.7 l 0,0 1.98,-10.12 0,0 q 2.97,-14.3 2.97,-17.49 l 0,0 0,0 q 0,-6.38 -3.74,-6.38 l 0,0 0,0 q -6.27,0 -9.57,16.39 l 0,0 -6.49,33.44 -22.11,2.2 11.44,-58.41 18.04,-2.09 -1.76,10.78 0,0 q 5.17,-10.78 21.01,-10.78 l 0,0 0,0 q 7.7,0 10.95,3.25 l 0,0 0,0 q 3.24,3.24 3.24,10.5 l 0,0 0,0 q 0,6.82 -3.52,22.77 l 0,0 0,0 q -1.65,7.15 -1.65,9.84 l 0,0 0,0 q 0,2.7 1.49,4.24 l 0,0 0,0 q 1.48,1.54 3.68,1.76 l 0,0 0,0 q -1.1,3.74 -4.89,5.94 l 0,0 0,0 q -3.8,2.2 -8.75,2.2 z m 71.5,-8.25 0,0 0,0 q -3.41,8.25 -14.3,8.25 l 0,0 0,0 q -5.61,0 -9.13,-3.85 l 0,0 0,0 q -2.97,-3.41 -2.97,-6.82 l 0,0 0,0 q 0,-8.91 4.07,-26.29 l 0,0 4.07,-21.34 22.33,-2.2 -6.71,34.76 0,0 q -1.87,8.14 -1.87,11 l 0,0 0,0 q 0,6.27 4.51,6.49 z m -16.28,-65.34 0,0 0,0 q 0,-4.29 3.58,-6.6 l 0,0 0,0 q 3.57,-2.31 8.74,-2.31 l 0,0 0,0 q 5.17,0 8.31,2.31 l 0,0 0,0 q 3.13,2.31 3.13,6.6 l 0,0 0,0 q 0,4.29 -3.46,6.49 l 0,0 0,0 q -3.47,2.2 -8.64,2.2 l 0,0 0,0 q -5.17,0 -8.41,-2.2 l 0,0 0,0 q -3.25,-2.2 -3.25,-6.49 z m 53.08,68.09 0,0 0,0 q -2.59,-2.86 -3.74,-7.37 l 0,0 0,0 q -1.16,-4.51 -1.16,-11.88 l 0,0 0,0 q 0,-7.37 2.53,-14.08 l 0,0 0,0 q 2.53,-6.71 7.15,-11.55 l 0,0 0,0 q 9.46,-10.12 25.08,-10.12 l 0,0 0,0 q 5.61,0 9.68,1.87 l 0,0 18.81,-1.87 -8.14,42.9 0,0 q -0.33,1.32 -0.33,3.74 l 0,0 0,0 q 0,2.42 1.49,3.96 l 0,0 0,0 q 1.48,1.54 3.68,1.76 l 0,0 0,0 q -1.1,3.74 -5.11,5.94 l 0,0 0,0 q -4.02,2.2 -8.53,2.2 l 0,0 0,0 q -4.51,0 -7.53,-1.71 l 0,0 0,0 q -3.03,-1.7 -3.91,-4.56 l 0,0 0,0 q -1.76,2.75 -5.5,4.51 l 0,0 0,0 q -3.74,1.76 -8.74,1.76 l 0,0 0,0 q -5.01,0 -9.08,-1.32 l 0,0 0,0 q -4.07,-1.32 -6.65,-4.18 z m 23.21,-44.66 0,0 0,0 q -1.27,1.98 -2.37,5.33 l 0,0 0,0 q -1.1,3.36 -2.91,12.33 l 0,0 0,0 q -1.82,8.96 -1.82,15.34 l 0,0 0,0 q 0,6.38 0.99,8.25 l 0,0 0,0 q 0.99,1.87 2.75,1.87 l 0,0 0,0 q 3.52,0 6.11,-3.36 l 0,0 0,0 q 2.58,-3.35 3.57,-9.29 l 0,0 5.83,-32.23 0,0 q -2.31,-1.98 -5,-1.98 l 0,0 0,0 q -2.7,0 -4.29,0.88 l 0,0 0,0 q -1.6,0.88 -2.86,2.86 z"
           inkscape:connector-curvature="0"
           style="fill:#cccccc" />
      </g>
    </g>
  </g>
  <style
     id="style4170">text {
  font-size: 64px;
  font-family: Arial Black;
  dominant-baseline: central;
  text-anchor: middle;
}</style>
  <style
     id="style4174">text {
  font-size: 64px;
  font-family: Arial Black;
  dominant-baseline: central;
  text-anchor: middle;
}</style>
</svg>
